<svg xmlns="http://www.w3.org/2000/svg" xmlns:xlink="http://www.w3.org/1999/xlink" width="328" height="502" version="1.1" viewBox="0 0 328 502"><title>bts-logo-v2</title><desc>Created with Sketch.</desc><defs><filter id="filter-1" width="200%" height="200%" x="-50%" y="-50%" filterUnits="objectBoundingBox"><feOffset dx="-1" dy="3" in="SourceAlpha" result="shadowOffsetOuter1"/><feGaussianBlur in="shadowOffsetOuter1" result="shadowBlurOuter1" stdDeviation=".5"/><feColorMatrix in="shadowBlurOuter1" result="shadowMatrixOuter1" type="matrix" values="0 0 0 0 0.253253169 0 0 0 0 0.335172461 0 0 0 0 0.39758716 0 0 0 0.688377491 0"/><feMerge><feMergeNode in="shadowMatrixOuter1"/><feMergeNode in="SourceGraphic"/></feMerge></filter></defs><g id="Github-avatars" fill="none" fill-rule="evenodd" stroke="none" stroke-width="1"><g id="bts-logo-v2"><g id="Group"><g filter="url(#filter-1)" transform="translate(19.000000, 12.000000) translate(0.000000, 0.000000)"><path id="Shape-13" fill="#4BAFCE" d="M104.448454,298.423579 L7.10542736e-15,196.450628 L7.10542736e-15,318.568585 L95.5321227,318.568585 C97.1698162,311.259335 100.263237,304.306634 104.448454,298.423579 L104.448454,298.423579 Z"/><path id="Shape-14" fill="#62B5D0" d="M96.2313554,339.806491 L-7.10542736e-15,339.806491 C2.19122631,373.22335 15.7037886,403.388839 36.7030407,427.412852 L104.448454,360.398501 C100.613808,354.076393 97.5095708,347.212389 96.2313554,339.806491 L96.2313554,339.806491 Z"/><path id="Shape-15" fill="#B2D4DF" d="M246.391225,219.558917 C222.519659,198.924361 191.905743,185.53 158.011764,183.176936 L158.011764,278.204497 C165.665243,279.652536 172.407594,282.36761 178.238816,286.711727 L246.391225,219.558917 L246.391225,219.558917 Z"/><path id="Shape-16" fill="#9EC8D7" d="M192.827915,358.328438 L259.65946,424.758114 C279.547668,401.427584 292.089781,372.219898 294.598204,339.806491 L200.532356,339.806491 C198.740626,346.752221 196.411376,352.807473 192.827915,358.328438 L192.827915,358.328438 Z"/><path id="Shape-17" fill="#B1D0DA" d="M201.410218,318.568585 L297.276369,318.568585 C295.085143,285.151726 281.572581,254.986237 260.573329,230.962224 L192.827915,297.976575 C196.845164,304.298683 199.766799,311.343318 201.410218,318.568585 L201.410218,318.568585 Z"/><path id="Shape-18" fill="#77BBD2" d="M50.8851443,441.470897 C74.7567101,462.105453 105.370627,475.499814 139.264605,477.852878 L139.264605,382.825317 C131.611126,381.377278 124.868776,378.662205 119.037554,374.318088 L50.8851443,441.470897 L50.8851443,441.470897 Z"/><path id="Shape-19" fill="#8AC1D5" d="M160.689929,382.825317 L160.689929,477.852878 C194.583908,475.680819 225.197825,462.105453 249.069391,441.470897 L181.645884,374.318088 C175.085759,378.662205 168.161183,381.377278 160.689929,382.825317 L160.689929,382.825317 Z"/><path id="Shape-20" fill="#00587C" d="M0.36456703,165.295654 C26.0665426,190.62901 106.81814,270.581799 120.30712,284.056988 C126.140192,280.822943 132.155548,277.948236 139.264605,276.510883 L139.264605,121.81571 L0,1.42108547e-13 C-1.29520227e-14,0.179669189 0.36456703,161.522601 0.36456703,165.295654 L0.36456703,165.295654 Z"/></g></g></g></g></svg>